<?xml version="1.0" encoding="UTF-8" standalone="no"?>
<!-- Created with Inkscape (http://www.inkscape.org/) -->

<svg
   width="63.999996"
   height="63.999996"
   viewBox="0 0 16.933332 16.933332"
   version="1.1"
   id="svg1"
   xml:space="preserve"
   inkscape:version="1.4.2 (f4327f4, 2025-05-13)"
   sodipodi:docname="VarSetUpdate.svg"
   inkscape:export-filename="VarSetUpdate.png"
   inkscape:export-xdpi="192.00002"
   inkscape:export-ydpi="192.00002"
   xmlns:inkscape="http://www.inkscape.org/namespaces/inkscape"
   xmlns:sodipodi="http://sodipodi.sourceforge.net/DTD/sodipodi-0.dtd"
   xmlns:xlink="http://www.w3.org/1999/xlink"
   xmlns="http://www.w3.org/2000/svg"
   xmlns:svg="http://www.w3.org/2000/svg"><sodipodi:namedview
     id="namedview1"
     pagecolor="#ffffff"
     bordercolor="#666666"
     borderopacity="1.0"
     inkscape:showpageshadow="2"
     inkscape:pageopacity="0.0"
     inkscape:pagecheckerboard="0"
     inkscape:deskcolor="#d1d1d1"
     inkscape:document-units="px"
     inkscape:zoom="8.4158404"
     inkscape:cx="29.052357"
     inkscape:cy="23.705297"
     inkscape:window-width="1920"
     inkscape:window-height="1009"
     inkscape:window-x="-8"
     inkscape:window-y="-8"
     inkscape:window-maximized="1"
     inkscape:current-layer="layer1"
     showguides="true"
     showgrid="true"
     inkscape:lockguides="false"><inkscape:grid
       id="grid1"
       units="mm"
       originx="0"
       originy="0"
       spacingx="0.99999998"
       spacingy="0.99999998"
       empcolor="#0099e5"
       empopacity="0.30196078"
       color="#0099e5"
       opacity="0.14901961"
       empspacing="5"
       enabled="true"
       visible="true" /></sodipodi:namedview><defs
     id="defs1"><clipPath
       clipPathUnits="userSpaceOnUse"
       id="clipPath3"><rect
         style="fill:#ffffff;fill-opacity:1;stroke:none;stroke-width:1.5;stroke-linecap:round;stroke-linejoin:round;stroke-miterlimit:4;paint-order:stroke fill markers"
         id="rect3"
         width="8.4666634"
         height="16.933332"
         x="142.61041"
         y="102.92292" /></clipPath><clipPath
       clipPathUnits="userSpaceOnUse"
       id="clipPath4"><path
         style="fill:#000000;stroke-width:1"
         d="m -27.890335,193.06909 -1.382076,-0.33421 -3.855365,-3.85537 -3.855365,-3.85536 1.449371,-1.44937 1.449371,-1.44937 3.852112,3.85211 3.852113,3.85211 0.35052,1.47888 c 0.192793,0.81338 0.353398,1.6262 0.356905,1.80628 0.008,0.40742 -0.376562,0.39947 -2.217586,-0.0457 z"
         id="path4"
         sodipodi:nodetypes="ccccccccccc" /></clipPath><linearGradient
       inkscape:collect="always"
       xlink:href="#linearGradient3791"
       id="linearGradient3797"
       x1="448.72443"
       y1="115.0061"
       x2="434.47638"
       y2="78.006104"
       gradientUnits="userSpaceOnUse"
       gradientTransform="matrix(0.25997719,0,0,0.26458333,6.370808,100.80696)" /><linearGradient
       inkscape:collect="always"
       id="linearGradient3791"><stop
         style="stop-color:#3465a4;stop-opacity:1;"
         offset="0"
         id="stop3793" /><stop
         style="stop-color:#729fcf;stop-opacity:1"
         offset="1"
         id="stop3795" /></linearGradient><linearGradient
       inkscape:collect="always"
       xlink:href="#linearGradient3799"
       id="linearGradient3805"
       x1="444.65356"
       y1="117.0061"
       x2="429.38779"
       y2="86.006104"
       gradientUnits="userSpaceOnUse"
       gradientTransform="matrix(0.25997719,0,0,0.26458333,6.370808,100.80696)" /><linearGradient
       inkscape:collect="always"
       id="linearGradient3799"><stop
         style="stop-color:#204a87;stop-opacity:1;"
         offset="0"
         id="stop3801" /><stop
         style="stop-color:#3465a4;stop-opacity:1"
         offset="1"
         id="stop3803" /></linearGradient></defs><g
     inkscape:label="Layer 1"
     inkscape:groupmode="layer"
     id="layer1"
     transform="translate(-142.61041,-102.92292)"><g
       id="g2"
       transform="matrix(0.29764384,0,0,0.29764384,140.0285,100.78137)"><g
         id="path1-7"><path
           style="color:#000000;-inkscape-font-specification:'Latin Modern Mono';fill:#2e3436;stroke-linecap:round;-inkscape-stroke:none;paint-order:markers stroke fill"
           d="m 29.335937,11.738281 c -0.765073,0.01478 -2.794365,0.07051 -5.09375,1.080078 -2.2884,1.004742 -4.976565,3.483188 -5.478515,7.16211 -0.108307,0.692017 -0.06449,0.715237 -0.07227,1.041015 -0.0083,0.349629 -0.01407,0.768413 -0.01758,1.220703 -0.007,0.904582 -0.0078,1.940149 -0.0078,2.679688 v 4.748047 c 0,0.452732 0.01618,0.31676 0,0.476562 -0.416926,0.110896 -0.675743,0.160157 -1.289063,0.160157 -1.101116,0 -2.72892,0.346376 -3.849609,1.585937 -1.120689,1.239561 -1.296875,2.66616 -1.296875,3.748047 0,1.081887 0.176185,2.508486 1.296875,3.748047 1.12069,1.239561 2.748494,1.585937 3.849609,1.585937 0.61332,0 0.872138,0.04926 1.289063,0.160157 0.01618,0.159802 0,0.02383 0,0.476562 v 4.748047 c 0,0.739556 7.96e-4,1.775112 0.0078,2.679687 0.0035,0.452288 0.0092,0.869136 0.01758,1.21875 0.0078,0.325808 -0.03602,0.35091 0.07227,1.042969 0.50195,3.678922 3.190115,6.157368 5.478515,7.16211 2.299385,1.009564 4.328677,1.065294 5.09375,1.080078 0.854515,0.01651 2.011506,-0.02136 3.367188,-0.833985 1.355682,-0.81262 2.525391,-2.808615 2.525391,-4.61914 0,-2.101331 -1.674838,-3.84977 -2.8125,-4.408203 -1.137663,-0.558434 -1.667841,-0.628907 -2.628907,-0.628907 h -0.03906 -0.04102 c -0.491991,0.01098 -0.313718,0.02697 -0.285156,0.03516 v -9.111329 c 0,-0.709514 -0.08169,-1.663977 -0.734375,-3.091796 -0.181367,-0.396762 -0.537294,-0.824644 -0.820313,-1.244141 0.283019,-0.419497 0.638946,-0.847379 0.820313,-1.244141 0.652682,-1.42782 0.734375,-2.382285 0.734375,-3.091797 v -9.111328 c -0.02856,0.0082 -0.206834,0.02418 0.285156,0.03516 h 0.04102 0.03906 c 0.96107,0 1.491244,-0.07047 2.628907,-0.628907 1.137662,-0.558433 2.8125,-2.306872 2.8125,-4.408203 0,-1.810525 -1.169708,-3.806518 -2.525391,-4.61914 -1.355683,-0.812623 -2.512661,-0.850504 -3.367188,-0.833985 z m 0.451172,3.378907 h 0.07813 c -0.150949,-0.0034 -0.283564,0.06439 -0.433593,0.06836 0.0138,-0.036 -0.09719,-0.06836 0.355468,-0.06836 z M 29.375,56.083984 c 0.1695,0.0056 0.319521,0.08193 0.490234,0.07813 l -0.07813,0.002 c -0.524974,0 -0.347373,-0.01621 -0.412109,-0.08008 z"
           id="path4-8" /><path
           style="color:#000000;-inkscape-font-specification:'Latin Modern Mono';fill:#ffffff;stroke-linecap:round;-inkscape-stroke:none;paint-order:markers stroke fill"
           d="m 29.404828,15.292406 c 0.897487,-0.01735 2.267456,0.263607 2.267456,1.899385 0,1.26641 -1.568678,1.480964 -1.885495,1.480964 -2.960829,-0.06605 -3.920303,1.709477 -3.920303,3.239718 v 9.392753 c 0,0.209247 -0.10679,2.647961 -2.989708,4.33525 2.882918,1.68729 2.989708,4.126004 2.989708,4.33525 v 9.392753 c 0,1.530242 0.959474,3.305766 3.920303,3.239719 0.316817,0 1.885495,0.214553 1.885495,1.480964 0,1.635777 -1.369969,1.916731 -2.267456,1.899385 -1.086773,-0.021 -6.494556,-0.328881 -7.128769,-5.196397 -0.0528,-0.316603 -0.05382,-2.955 -0.05382,-4.432477 v -4.748462 c 0,-1.899613 -0.08593,-3.155195 -2.138978,-3.816131 -1.137954,-0.375942 -1.946855,-0.376752 -2.70671,-0.376752 -1.110931,0 -1.590344,-0.511443 -1.590344,-1.777852 0,-1.266408 0.479413,-1.777852 1.590344,-1.777852 0.759855,0 1.568756,-8.1e-4 2.70671,-0.376751 2.053043,-0.660937 2.138978,-1.916519 2.138978,-3.816132 v -4.748462 c 0,-1.477476 0.001,-4.115873 0.05382,-4.432476 0.634213,-4.867516 6.041996,-5.175397 7.128769,-5.196397 z"
           id="path5" /></g></g><g
       id="g1"
       transform="matrix(-0.50311482,0.5166999,0.50311482,0.5166999,153.51779,-19.578755)"
       style="stroke-width:1.38685"><path
         sodipodi:nodetypes="cccccc"
         inkscape:connector-curvature="0"
         id="path3969"
         d="m 130.96642,130.17732 1.05834,4.7625 -4.7625,-1.05833 -0.52917,-1.05833 3.175,-3.175 z"
         style="fill:#ffffff;stroke:#0b1521;stroke-width:0.73388;stroke-linecap:butt;stroke-linejoin:round;stroke-opacity:1" /><path
         sodipodi:nodetypes="ccccc"
         inkscape:connector-curvature="0"
         id="path3843"
         d="m 120.38309,119.59399 -1.05833,1.05833 10.58333,10.58334 c 0,-0.79375 0.26458,-1.05834 1.05833,-1.05834 z"
         style="fill:#729fcf;stroke:none;stroke-width:0.363732" /><path
         sodipodi:nodetypes="ccccc"
         inkscape:connector-curvature="0"
         id="path3843-7"
         d="m 119.32476,120.65232 -1.5875,1.5875 10.58333,10.58334 c 0,-0.79375 0.79375,-1.5875 1.5875,-1.5875 z"
         style="fill:url(#linearGradient3797);fill-opacity:1;stroke:none;stroke-width:0.363732" /><path
         sodipodi:nodetypes="ccccc"
         inkscape:connector-curvature="0"
         id="path3843-5"
         d="m 117.73726,122.23982 -1.05834,1.05834 10.58334,10.58333 c 0,-0.79375 0.26458,-1.05833 1.05833,-1.05833 z"
         style="fill:url(#linearGradient3805);fill-opacity:1;stroke:none;stroke-width:0.363732" /><path
         sodipodi:nodetypes="ccccc"
         inkscape:connector-curvature="0"
         id="path3843-5-6"
         d="m 120.38309,119.59399 -1.05833,1.05833 10.58333,10.58334 c 0,-0.79375 0.26458,-1.05834 1.05833,-1.05834 z"
         style="fill:none;stroke:#0b1521;stroke-width:0.73388;stroke-linecap:butt;stroke-linejoin:round;stroke-opacity:1" /><path
         sodipodi:nodetypes="ccccc"
         inkscape:connector-curvature="0"
         id="path3843-5-6-2"
         d="m 119.32476,120.65232 -1.5875,1.5875 10.58333,10.58334 c 0,-0.79375 0.79375,-1.5875 1.5875,-1.5875 z"
         style="fill:none;stroke:#0b1521;stroke-width:0.73388;stroke-linecap:butt;stroke-linejoin:round;stroke-opacity:1" /><path
         style="fill:none;stroke:#3465a4;stroke-width:0.73388;stroke-linecap:butt;stroke-linejoin:miter;stroke-opacity:1"
         d="m 117.20809,123.03357 10.31875,10.3601"
         id="path3807"
         inkscape:connector-curvature="0"
         sodipodi:nodetypes="cc" /><path
         sodipodi:nodetypes="ccccc"
         inkscape:connector-curvature="0"
         id="path3843-5-6-9"
         d="m 117.73726,122.23982 -1.05834,1.05834 10.58334,10.58333 c 0,-0.79375 0.26458,-1.05833 1.05833,-1.05833 z"
         style="fill:none;stroke:#0b1521;stroke-width:0.73388;stroke-linecap:butt;stroke-linejoin:round;stroke-opacity:1" /><path
         sodipodi:nodetypes="ccccc"
         inkscape:connector-curvature="0"
         id="path3971"
         d="m 130.96642,133.08774 c -0.26458,0 -0.94471,0.66575 -1.05833,1.32292 l 2.11667,0.52916 -0.79375,-1.85208 h -0.26459"
         style="fill:#0b1521;stroke:#0b1521;stroke-width:0.366939px;stroke-linecap:butt;stroke-linejoin:round;stroke-opacity:1" /></g></g></svg>
